PathFileType	4	(X/Y/Z)	Run_400 01
DataRate	CameraRate	NumFrames	NumMarkers	Units	OrigDataRate	OrigDataStartFrame	OrigNumFrames
120	120	5	42	mm	120	261	128
Frame#	Time	LASI			RASI			LPSI			RPSI			RTH1			RTH2			RTH3			LTH1			LTH2			LTH3			RTB1			RTB2			RTB3			LTB1			LTB2			LTB3			RCAL			RTOE			RMT5			LCAL			LTOE			LMT5			LACR			RACR			CLAV			C7			RUA1			RUA2			RUA3			RLEL			RMEL			LUA1			LUA2			LUA3			LLEL			LMEL			RFAsuperior			RFAradius			RFAulna			LFAsuperior			LFAradius			LFAulna		
		X1	Y1	Z1	X2	Y2	Z2	X3	Y3	Z3	X4	Y4	Z4	X5	Y5	Z5	X6	Y6	Z6	X7	Y7	Z7	X8	Y8	Z8	X9	Y9	Z9	X10	Y10	Z10	X11	Y11	Z11	X12	Y12	Z12	X13	Y13	Z13	X14	Y14	Z14	X15	Y15	Z15	X16	Y16	Z16	X17	Y17	Z17	X18	Y18	Z18	X19	Y19	Z19	X20	Y20	Z20	X21	Y21	Z21	X22	Y22	Z22	X23	Y23	Z23	X24	Y24	Z24	X25	Y25	Z25	X26	Y26	Z26	X27	Y27	Z27	X28	Y28	Z28	X29	Y29	Z29	X30	Y30	Z30	X31	Y31	Z31	X32	Y32	Z32	X33	Y33	Z33	X34	Y34	Z34	X35	Y35	Z35	X36	Y36	Z36	X37	Y37	Z37	X38	Y38	Z38	X39	Y39	Z39	X40	Y40	Z40	X41	Y41	Z41	X42	Y42	Z42	

261	  2.175000	762.303029	968.802317	-482.897976	724.925158	977.744817	-230.427582	582.417605	996.058134	-423.900239	568.997217	1003.281774	-338.941673	679.182272	797.497713	-199.466356	739.435689	676.649814	-225.866764	650.289394	552.310331	-230.492166	762.040704	832.939718	-525.117979	870.511128	768.746849	-506.286053	879.251619	623.736302	-515.763871	643.747944	339.582845	-300.845424	579.416647	299.462538	-246.742180	529.541848	197.810126	-318.068280	828.967097	474.462165	-428.821879	721.401053	489.050541	-491.981832	637.008121	472.702629	-423.353526	353.825020	121.695780	-320.659019	565.751690	 62.367865	-327.376571	530.715578	 62.534467	-236.995411	493.124169	558.769600	-450.382918	538.471299	349.848837	-405.622734	513.380635	355.026657	-495.869744	737.335539	1437.124068	-529.175918	739.667799	1408.168644	-152.561083	839.118762	1376.042652	-319.694433	707.667057	1477.100610	-340.094767	720.365272	1294.486758	-96.073406	746.418203	1231.158162	-91.583908	647.839916	1203.026553	-64.483712	690.558211	1131.971252	-19.401071	651.791543	1090.772250	-88.890343	679.749904	1394.735966	-584.397972	599.734361	1361.162519	-560.235128	624.920538	1329.766604	-628.536038	550.282744	1256.073064	-678.271121	499.436714	1233.322969	-610.575528	773.181701	1138.082416	-42.176132	915.159403	1153.795234	-131.586432	906.019858	1087.903443	-112.726498	606.334009	1207.600134	-671.647824	712.365377	1088.839154	-581.322588	672.467731	1055.033432	-625.786373	
262	  2.183333	763.246773	975.794754	-481.372909	728.060358	981.324575	-231.094529	584.192561	1001.847899	-423.698466	571.672303	1008.794727	-337.915760	674.009693	801.256226	-199.862295	726.210244	677.859641	-225.766841	629.969349	558.011359	-230.367730	766.397178	840.955554	-524.454951	875.751060	780.851626	-504.846960	890.851431	636.735740	-514.258889	616.667827	344.530078	-298.626621	550.517598	305.923315	-245.211650	501.334491	204.178053	-317.677693	848.092608	479.961956	-426.064864	739.730979	485.049175	-489.242565	657.155493	461.813677	-420.752418	324.432106	130.650040	-318.730151	534.191452	 63.725410	-328.976946	497.296625	 62.651842	-237.564692	505.630512	534.558100	-446.081842	571.338570	330.422503	-403.831202	545.368178	334.259875	-494.386815	731.752913	1444.563195	-529.166904	743.804213	1414.004593	-153.557025	838.987246	1383.462229	-323.326609	706.393720	1482.530558	-339.786461	728.275306	1298.869716	-98.380116	755.110619	1235.830139	-96.587027	658.107043	1206.477742	-64.344011	702.247296	1135.093466	-23.872807	661.172257	1094.598882	-92.982810	673.731308	1403.647792	-583.973997	594.343814	1369.830945	-558.864176	618.307919	1339.159313	-628.190940	542.818001	1266.289820	-677.417852	492.503304	1243.203912	-608.757235	783.540970	1144.712852	-49.266310	920.925684	1167.512183	-143.815982	915.043759	1101.060136	-126.150587	599.254485	1218.840722	-671.926682	708.114060	1101.214203	-585.134773	666.877143	1065.891915	-626.888138	
263	  2.191667	764.272744	983.112519	-479.474098	731.909598	985.502878	-231.925930	586.216522	1007.795995	-423.528358	574.845368	1014.534451	-336.722299	668.868069	805.915951	-200.073411	713.168424	680.538766	-225.368420	610.238389	565.592319	-230.188263	771.063551	849.299380	-523.970892	880.769801	792.524530	-503.260457	901.087627	649.294768	-512.767627	590.571241	351.667646	-296.096925	523.170577	314.295415	-243.072287	474.568628	212.334002	-316.107425	866.550671	484.889887	-423.609277	757.954208	480.495010	-486.712573	677.783618	450.089707	-417.832347	297.128991	141.851027	-316.238721	502.864706	 64.355675	-329.647575	464.240214	 62.904388	-238.135103	519.980312	508.648343	-441.300520	605.477728	311.472985	-401.664896	578.643219	313.726715	-492.677956	726.462647	1452.134365	-529.043435	747.932829	1420.302753	-154.771346	838.754050	1391.301141	-326.804982	705.017925	1488.149857	-339.608990	736.135809	1303.987190	-100.672390	763.448232	1241.167258	-101.806555	668.382019	1211.004583	-63.826616	713.572562	1139.325810	-27.987883	669.659059	1099.446561	-96.325774	668.110666	1412.737474	-583.364037	589.406156	1378.634820	-557.504941	612.237189	1348.810108	-627.815236	536.131454	1276.706545	-676.647019	486.029909	1253.125101	-607.279987	793.346571	1152.088176	-56.006182	925.392228	1181.238315	-155.999067	922.454470	1114.359799	-140.070096	592.938188	1230.333112	-672.185460	704.104475	1113.625475	-588.481900	661.958587	1077.027092	-627.677747	
264	  2.200000	765.407300	990.447381	-477.744394	736.137053	990.215045	-232.567951	588.481368	1013.918548	-423.341870	578.391360	1020.403471	-335.421178	663.972819	811.454437	-200.117658	700.757160	684.478784	-225.012927	591.436435	574.888809	-229.706442	775.866819	858.080468	-523.911465	885.614714	803.747122	-501.729738	909.944045	661.200987	-511.359469	565.692778	360.729661	-293.101243	497.524344	324.471004	-240.159271	449.527036	221.938648	-312.824126	884.289308	489.141752	-421.533622	776.034315	475.327317	-484.331909	699.051925	437.582102	-414.712761	272.345189	155.101760	-313.419953	471.670591	 64.091985	-329.465659	431.697773	 63.361813	-238.501135	536.410509	481.317730	-436.481691	640.661459	293.167705	-399.158784	612.929912	293.394674	-490.379276	721.537801	1459.619835	-528.872742	751.902400	1426.928823	-156.179763	838.407853	1399.366977	-330.136459	703.664263	1493.916613	-339.580155	743.707422	1309.716419	-102.869349	771.171099	1246.984810	-107.043985	678.446258	1216.346791	-63.105711	724.427250	1144.461723	-31.695033	677.539908	1105.029385	-98.837450	662.943685	1421.726090	-582.581620	584.927288	1387.447012	-556.271390	606.703965	1358.392526	-627.541277	529.963298	1286.927315	-676.027022	480.148774	1262.889157	-606.032100	802.477645	1160.022323	-62.441937	928.563163	1194.728157	-167.855517	928.282638	1127.559244	-154.155235	587.111855	1241.586128	-672.632221	700.371844	1125.879284	-591.452116	657.694213	1088.229493	-628.329353	
265	  2.208333	766.630213	997.562423	-476.509762	740.351664	995.226926	-232.787764	590.999531	1020.201796	-423.093753	582.130446	1026.287392	-334.110058	659.648118	817.574096	-200.076143	689.310508	689.187771	-224.915090	573.783830	585.556857	-228.860684	780.603558	867.245540	-524.330000	890.211183	814.468868	-500.563954	917.380095	672.208505	-510.073145	542.272301	371.308556	-289.655628	473.514410	336.243818	-236.557594	426.602446	232.462798	-307.922576	901.093585	492.671102	-419.929836	793.961726	469.458548	-482.025499	721.040073	424.422505	-411.739757	250.409437	170.129245	-310.316819	440.799413	 63.393066	-328.846851	399.976092	 64.161698	-238.448944	554.959092	452.896661	-431.923193	676.837766	275.583206	-396.505490	648.179486	273.306000	-487.381691	717.041545	1466.844604	-528.752473	755.635207	1433.728479	-157.790789	837.922535	1407.480980	-333.418459	702.454025	1499.757755	-339.721018	750.805983	1315.932228	-104.918640	778.148367	1253.140030	-112.099903	688.086498	1222.261769	-62.349303	734.704626	1150.263032	-34.988349	684.920538	1111.078602	-100.521192	658.275946	1430.423028	-581.754605	580.905390	1396.122526	-555.254923	601.677416	1367.676730	-627.470751	524.194865	1296.701322	-675.579095	474.868350	1272.361894	-604.957396	810.812257	1168.291227	-68.633761	930.483031	1207.782962	-179.206543	932.651095	1140.501373	-167.795545	581.635074	1252.305058	-673.287769	696.989667	1137.835807	-594.161116	654.048071	1099.287751	-628.963808	
